<svg xmlns="http://www.w3.org/2000/svg" viewBox="0 0 64 64">
  <rect width="64" height="64" rx="14" fill="#0b0d10"/>
  <rect x="9" y="9" width="46" height="46" fill="none" stroke="#fcd34d" stroke-opacity="0.35" stroke-width="2" stroke-dasharray="3 5"/>
  <path transform="translate(14 14) scale(1.5)" fill="none" stroke="#fcd34d" stroke-width="2.4" stroke-linecap="square" stroke-linejoin="miter" d="M14.7 6.3a1 1 0 0 0 0 1.4l1.6 1.6a1 1 0 0 0 1.4 0l3.106-3.105c.32-.322.863-.22.983.218a6 6 0 0 1-8.259 7.057l-7.91 7.91a1 1 0 0 1-2.999-3l7.91-7.91a6 6 0 0 1 7.057-8.259c.438.12.54.662.219.984z"/>
</svg>
